<svg xmlns="http://www.w3.org/2000/svg" width="1065" height="800" aria-label="Logo SOCAMETT - Le Garant Financier des Métiers de l'Emploi" viewBox="0 0 1065 800" role="img">
  <title>SOCAMETT</title>
  <ellipse cx="532.5" cy="393.5" fill="#0b3fa4" rx="523" ry="387.5"/>
  <ellipse cx="532.5" cy="393.5" fill="none" stroke="#fff" stroke-width="4.5" rx="438" ry="302.5"/>
  <path d="m264.4 137-12.04-24.32 5.15-2.55 9.93 20.05 9.86-4.88 2.11 4.26zm27.74-36.12q2.65-1.1 5-.89 2.34.21 4.2 1.7 1.85 1.5 3.02 4.3l1.06 2.53-12.34 5.17q1 2.17 2.77 2.92 1.77.72 3.98-.2 1.83-.77 3.2-1.78 1.36-1.02 2.66-2.44l1.69 4.04q-1.13 1.3-2.55 2.27-1.4.97-3.61 1.9-2.88 1.2-5.55 1.07-2.65-.14-4.83-1.78-2.16-1.65-3.54-4.95-1.4-3.36-1.2-6.06.2-2.72 1.77-4.68 1.57-1.99 4.27-3.12m1.6 3.7q-1.53.64-2.13 2.04-.59 1.39.13 3.54l7.33-3.07q-.5-1.15-1.3-1.89-.77-.74-1.8-.93-1-.2-2.24.31m53.4-17.22 10.29-3.14 4.1 13.45q-1.83 1.3-3.9 2.38-2.1 1.06-4.88 1.91-3.87 1.18-7.03.48t-5.47-3.26-3.64-6.9q-1.25-4.08-.6-7.54.67-3.46 3.2-6.02t6.9-3.89q2.05-.62 4.2-.8 2.14-.16 3.99.05l-.49 4.96q-1.37-.24-3.02-.18t-3.32.56q-2.4.73-3.84 2.38-1.42 1.63-1.79 3.92-.36 2.26.46 4.94.78 2.54 2.07 4.3 1.29 1.74 3.12 2.4t4.22-.08q1.17-.36 1.94-.71l1.45-.72-1.65-5.4-4.92 1.5zm33.53-15.27q4.06-.98 6.65.27 2.58 1.25 3.45 4.86L394 90.66l-3.84.92-1.73-2.48-.14.03q-.6 1.3-1.35 2.2-.73.9-1.83 1.5t-2.77 1.01q-1.79.43-3.38.09-1.57-.35-2.72-1.56-1.15-1.23-1.68-3.42-.77-3.2 1.12-5.27t6.36-3.32l3.48-.94-.22-.89q-.38-1.59-1.38-2.13-1.01-.54-2.5-.18-1.45.35-2.76 1.1t-2.56 1.72l-2.72-3.27q1.4-1.24 3.27-2.2 1.89-.97 4.02-1.48m5.62 10.54-2.11.58q-2.66.71-3.5 1.85-.8 1.13-.46 2.57.3 1.27 1.17 1.63t2.06.06q1.77-.42 2.72-1.76.98-1.34.52-3.27zm30.67-18.11q.42-.08.98-.13.57-.07.93-.06l.57 5.3q-.3-.05-.81.01-.5.04-.87.1-1.08.21-2.05.68-.95.46-1.63 1.23-.7.75-.98 1.84-.27 1.07 0 2.51l1.95 10.38-5.56 1.05-3.83-20.4 4.21-.78 1.47 3.27.27-.05q.4-1.15 1.14-2.18.75-1.04 1.8-1.77 1.07-.75 2.41-1m24.9-3.95q4.13-.57 6.58.92 2.46 1.5 2.97 5.18l1.89 13.69-3.91.54-1.48-2.64-.14.02q-.73 1.22-1.55 2.05t-1.98 1.32-2.85.73q-1.82.25-3.37-.25-1.53-.5-2.56-1.81-1.03-1.34-1.33-3.57-.46-3.27 1.63-5.13 2.08-1.88 6.65-2.68l3.55-.6-.12-.9q-.23-1.62-1.18-2.26t-2.45-.43-2.87.83-2.72 1.46l-2.38-3.53q1.52-1.09 3.47-1.86 1.97-.78 4.14-1.08m4.55 11.04-2.15.37q-2.71.45-3.66 1.5-.92 1.04-.72 2.51.18 1.3 1.01 1.74t2.04.26q1.8-.25 2.89-1.49 1.1-1.23.83-3.2zM479 56.54q3.31-.28 5.48 1.37 2.16 1.62 2.5 5.6l1.13 13.48-5.64.47-1.01-12.07q-.19-2.22-1.1-3.28-.89-1.06-2.6-.92-2.6.22-3.4 2.05-.79 1.84-.5 5.15l.81 9.73-5.64.47-1.74-20.67 4.31-.36.98 2.58.32-.03q.57-1.13 1.5-1.88t2.11-1.16q1.2-.42 2.49-.53m33.5 15.15q.93-.03 1.8-.25.88-.22 1.74-.53l.15 4.21q-.9.44-2.24.75-1.32.33-2.92.39-1.85.06-3.36-.48-1.48-.56-2.39-2-.89-1.48-.99-4.15l-.36-10-2.7.1-.09-2.39 3.05-2 1.47-4.44 3.62-.13.16 4.41 5.8-.2.15 4.24-5.8.21.36 10q.04 1.18.73 1.75.7.55 1.82.51m43.87 4.28-5.65-.22 1.06-27.1 15.54.6-.19 4.71-9.88-.39-.27 7 9.2.35-.2 4.7-9.19-.37zm32.01-18.84-1.65 20.68-5.64-.46 1.65-20.67zm-2.16-8.33q1.26.1 2.11.77.86.64.74 2.23-.13 1.58-1.08 2.11t-2.21.42q-1.28-.1-2.14-.76-.84-.69-.71-2.26.12-1.59 1.06-2.1t2.23-.4m30.69 10.97q3.3.41 5.08 2.47 1.78 2.03 1.29 6l-1.68 13.41-5.62-.7 1.5-12.02q.28-2.2-.39-3.43-.65-1.23-2.36-1.44-2.58-.32-3.74 1.31-1.15 1.63-1.57 4.93l-1.2 9.68-5.62-.7 2.57-20.58 4.29.53.43 2.73.3.04q.8-.99 1.86-1.53 1.08-.54 2.32-.7 1.25-.16 2.54 0m32.46 4.98q4.1.74 5.97 2.92 1.87 2.19 1.21 5.84l-2.46 13.6-3.88-.7-.58-2.97-.15-.03q-1.07.94-2.1 1.47-1.05.53-2.3.64-1.24.12-2.94-.19-1.8-.32-3.12-1.28-1.3-.95-1.87-2.52-.56-1.6-.16-3.8.59-3.25 3.15-4.38t7.16-.47l3.56.53.16-.9q.29-1.6-.42-2.5-.7-.9-2.2-1.18-1.48-.26-2.98-.1t-3.04.54l-1.16-4.1q1.78-.56 3.88-.69 2.11-.12 4.27.27m.9 11.9-2.17-.31q-2.71-.42-3.93.29-1.2.7-1.47 2.17-.23 1.27.42 1.96.65.66 1.86.88 1.79.32 3.2-.52 1.43-.83 1.79-2.78zm35.7-4.13q3.23.77 4.77 3 1.55 2.23.62 6.11l-3.14 13.15-5.5-1.31 2.81-11.79q.52-2.16-.01-3.45-.51-1.29-2.2-1.69-2.52-.6-3.85.9-1.33 1.49-2.1 4.72l-2.27 9.49-5.5-1.32 4.82-20.17 4.2 1 .13 2.76.3.07q.9-.89 2.01-1.31 1.13-.42 2.38-.44 1.27-.02 2.53.28m25.48 29.2q-2.95-.88-4.71-2.57-1.76-1.7-2.17-4.28t.64-6.1q1.09-3.65 3-5.58 1.93-1.94 4.44-2.37 2.53-.43 5.43.44 2.06.61 3.43 1.47 1.4.84 2.35 1.72l-2.85 3.72q-1.12-.9-2.13-1.54-1-.67-2.1-1-1.43-.42-2.57-.03-1.14.38-2 1.57-.86 1.2-1.46 3.2-.59 1.98-.48 3.43t.87 2.37q.75.9 2.1 1.3 1.7.5 3.14.45 1.45-.06 2.94-.51l-1.38 4.64q-1.48.41-2.95.34-1.46-.05-3.54-.67m32.38-11.62L737 109.7l-5.34-1.87 6.83-19.59zm.01-8.6q1.2.42 1.85 1.28.67.84.15 2.34t-1.58 1.77-2.25-.15-1.87-1.28q-.64-.87-.12-2.36.53-1.5 1.56-1.76 1.05-.26 2.26.16m24 17.31q2.67 1.08 4.17 2.9 1.52 1.8 1.78 4.16t-.88 5.17l-1.03 2.55-12.4-5.03q-.81 2.25-.1 4.02.75 1.77 2.97 2.67 1.84.75 3.53.99t3.6.14l-1.64 4.06q-1.72.12-3.41-.18-1.68-.3-3.9-1.2-2.9-1.18-4.7-3.15-1.78-1.97-2.16-4.67-.37-2.69.97-6 1.37-3.38 3.41-5.15 2.07-1.79 4.57-2.07 2.5-.3 5.22.8m-1.48 3.75q-1.53-.62-2.94-.05-1.4.57-2.4 2.6l7.36 3q.45-1.18.41-2.26-.03-1.07-.62-1.94-.57-.85-1.8-1.35m35 11.2q.39.18.86.47.5.28.8.5l-2.67 4.6q-.21-.2-.66-.46-.43-.26-.77-.42-.99-.47-2.04-.67-1.05-.18-2.05.04-1 .2-1.88.91-.85.71-1.48 2.03l-4.53 9.54-5.11-2.43 8.9-18.74 3.88 1.84-.75 3.51.25.12q1.01-.69 2.2-1.09 1.23-.4 2.5-.37 1.31.02 2.55.61" aria-label="Le Garant Financier" style="font-weight:700;font-size:38px;font-family:&quot;Open Sans&quot;,sans-serif;letter-spacing:10;text-anchor:middle;fill:#fff"/>
  <path d="M222.6 654.15q-2.97-1.8-3.44-5.25-.45-3.45 2.27-7.97 2.75-4.55 6.05-5.75t6.36.63q1.27.77 2.03 1.7t1.1 1.94q.36 1.02.41 2.05l.16.1q.21-.57.66-1.64.48-1.08 1.11-2.13l3.43-5.68 4.87 2.93-14.92 24.72-3.72-2.24.46-2.87-.21-.13q-.9.46-1.96.64-1.04.17-2.2-.05t-2.46-1m4.03-2.84q1.99 1.2 3.5.51 1.55-.69 3.04-3.04l.31-.53q1.57-2.59 1.6-4.43.04-1.87-2.13-3.17-1.6-.97-3.34-.13-1.74.83-3.31 3.44t-1.46 4.47q.12 1.88 1.8 2.88m37.26 1.33q2.56 1.32 3.9 3.26 1.34 1.92 1.4 4.3.04 2.39-1.34 5.08l-1.26 2.44-11.9-6.12q-1 2.17-.45 4 .59 1.83 2.71 2.92 1.77.9 3.42 1.3 1.66.4 3.58.47l-2 3.89q-1.72-.03-3.38-.49-1.65-.45-3.77-1.54-2.78-1.43-4.4-3.56-1.6-2.11-1.74-4.84-.13-2.71 1.51-5.9 1.67-3.23 3.86-4.81 2.22-1.6 4.73-1.66 2.52-.08 5.13 1.26m-1.8 3.6q-1.48-.76-2.93-.32-1.44.45-2.63 2.39l7.06 3.63q.56-1.13.62-2.2.07-1.08-.44-1.99-.5-.9-1.69-1.51m29.35 25.87q-.86 1.94-2.37 2.87-1.48.93-3.59.83-2.1-.12-4.78-1.3-1.98-.88-3.3-1.77-1.3-.87-2.47-2.1l1.89-4.28q1.24 1.38 2.8 2.62 1.58 1.22 2.92 1.82 1.52.67 2.36.5.86-.16 1.18-.89.21-.47.1-.96-.08-.5-.73-1.36-.65-.88-2.15-2.48-1.45-1.53-2.27-2.8-.8-1.27-.9-2.56-.08-1.29.63-2.9 1.17-2.63 3.79-3.05 2.64-.44 6.07 1.08 1.77.78 3.2 1.84 1.46 1.07 2.81 2.6l-3.21 3.05q-1.14-1.24-2.22-2.18-1.07-.94-2.36-1.51-1.14-.5-1.85-.46-.71.05-.99.68-.2.46-.07.94.15.5.8 1.31.68.81 2.04 2.22 1.32 1.38 2.19 2.63.87 1.24 1.04 2.6.18 1.33-.56 3.01m40.77 21.87.37-22.26-.16-.05-.6 2.22q-.38 1.48-.85 3.14t-.9 2.99l-3.9 12-4.88-1.6 8.39-25.79 7.45 2.42-.32 21.72.1.03 12.9-17.62 7.45 2.43-8.4 25.8-5.1-1.67 3.98-12.2q.4-1.23.95-2.8l1.1-2.98.81-2.13-.16-.06-13.22 18.04zm45.96-8.6q2.79.7 4.53 2.3 1.74 1.57 2.32 3.88.58 2.32-.17 5.25l-.67 2.66-12.97-3.3q-.5 2.34.46 4 .98 1.65 3.3 2.24 1.92.49 3.62.5t3.6-.35l-1.09 4.24q-1.68.36-3.4.29-1.7-.07-4.02-.66-3.03-.77-5.08-2.48-2.04-1.7-2.78-4.33t.15-6.09q.9-3.52 2.68-5.56 1.8-2.05 4.24-2.67 2.44-.64 5.28.08m-.96 3.91q-1.6-.4-2.92.35-1.3.76-2.02 2.91l7.7 1.96q.29-1.23.1-2.3-.17-1.05-.88-1.82-.68-.77-1.98-1.1m9.72-9.91-.1.37q-.64.38-1.67.9-1.04.52-2.21 1.08-1.18.55-2.3 1.05-1.12.48-1.94.78l-3.65-.93.12-.48q.77-.53 1.78-1.27 1.03-.75 2.06-1.56t1.76-1.5zM405.62 719q.9.19 1.8.18.9 0 1.82-.1l-.85 4.13q-.97.21-2.35.2-1.36 0-2.93-.32-1.82-.37-3.15-1.25-1.31-.9-1.85-2.52-.52-1.64.02-4.26l2-9.8-2.65-.54.47-2.34 3.44-1.23 2.48-3.96 3.54.72-.88 4.33 5.69 1.16-.86 4.16-5.69-1.16-2 9.8q-.24 1.16.3 1.88.55.7 1.65.92m25.6-12.27-3.39 20.46-5.58-.92 3.38-20.47zm-1.46-8.48q1.25.2 2.05.94.8.72.54 2.29-.26 1.56-1.26 2.01-.99.44-2.23.23-1.27-.2-2.07-.94-.78-.75-.52-2.3.26-1.58 1.23-2 1-.44 2.26-.23m24.9 11.4q2.85.34 4.78 1.7 1.93 1.34 2.8 3.56t.5 5.22l-.34 2.73-13.28-1.63q-.2 2.38.96 3.91 1.18 1.5 3.56 1.8 1.97.24 3.65.04 1.7-.2 3.52-.8l-.53 4.34q-1.62.57-3.34.72-1.7.14-4.08-.15-3.09-.38-5.34-1.82-2.24-1.43-3.31-3.94t-.63-6.05q.45-3.61 1.96-5.86 1.53-2.26 3.87-3.19t5.25-.59m-.46 4q-1.64-.2-2.85.7-1.2.93-1.64 3.15l7.88.97q.14-1.25-.18-2.28-.3-1.03-1.1-1.7-.78-.68-2.1-.85m34.81-.72q.43.03.98.13.57.08.92.18l-.84 5.26q-.27-.11-.78-.19-.5-.1-.87-.12-1.09-.09-2.15.11-1.04.2-1.9.77-.86.55-1.42 1.53-.54.96-.65 2.42l-.81 10.53-5.64-.44 1.59-20.68 4.27.33.57 3.54.27.02q.7-1 1.67-1.8 1-.82 2.2-1.25 1.22-.44 2.6-.34m28.71 16.3q-.07 2.11-1.12 3.54-1.04 1.41-3.03 2.1-1.99.68-4.92.58-2.17-.07-3.72-.4-1.53-.34-3.08-1.04l.16-4.67q1.66.81 3.57 1.38 1.93.55 3.4.6 1.65.06 2.37-.4.74-.48.77-1.27.02-.52-.27-.94-.26-.44-1.19-.99-.92-.57-2.92-1.5-1.92-.87-3.15-1.75-1.21-.88-1.78-2.03-.56-1.17-.5-2.93.1-2.88 2.38-4.25 2.3-1.39 6.04-1.26 1.93.07 3.66.52t3.57 1.37l-1.85 4.02q-1.51-.72-2.87-1.2-1.34-.47-2.75-.52-1.24-.04-1.88.27-.65.31-.67 1-.02.5.28.9.33.4 1.24.92.93.5 2.72 1.3 1.73.78 3 1.62 1.28.83 1.94 2.02.66 1.17.6 3m40.65 6.15q-3.46.15-5.76-2.47t-2.51-7.9q-.23-5.31 1.86-8.13 2.09-2.84 5.65-3 1.48-.06 2.63.3t2 1.01 1.47 1.48h.18l-.35-1.74q-.2-1.16-.25-2.38l-.28-6.64 5.67-.24 1.23 28.85-4.34.18-1.2-2.64h-.25q-.5.89-1.29 1.62-.76.72-1.86 1.18t-2.6.52m1.8-4.6q2.31-.09 3.2-1.5.9-1.43.84-4.22l-.02-.6q-.13-3.03-1.13-4.58-1-1.58-3.51-1.47-1.88.08-2.86 1.74-1 1.66-.86 4.7.13 3.04 1.25 4.53 1.14 1.5 3.09 1.4m32.18-19.2q2.86-.26 5.04.65 2.17.9 3.49 2.88 1.32 1.99 1.6 5l.25 2.73-13.32 1.24q.32 2.38 1.78 3.62 1.47 1.22 3.85 1 1.98-.18 3.59-.74t3.26-1.54l.4 4.36q-1.45.9-3.1 1.41-1.63.5-4.02.73-3.1.29-5.6-.63-2.5-.93-4.08-3.15-1.57-2.22-1.9-5.78-.34-3.62.66-6.14 1-2.53 3.1-3.94 2.08-1.42 5-1.7m.41 4.01q-1.64.15-2.64 1.3-.97 1.16-.93 3.43l7.91-.74q-.13-1.25-.67-2.19-.51-.94-1.44-1.43-.9-.5-2.23-.37m50.54 10.59-5.58.92L633 698.6l5.58-.93zm14.94-30.4 1.17 9.75-3.58.72-2.67-9.46zm36.03 19.56-15.18 3.7-6.42-26.36 15.18-3.7 1.12 4.58-9.6 2.34 1.42 5.78 8.92-2.17 1.11 4.58-8.92 2.17 1.65 6.8 9.6-2.34zm31.65-31.3q3.36-1.05 5.63.15 2.27 1.17 3.46 4.98l4.05 12.9-5.42 1.7-3.62-11.56q-.67-2.12-1.73-2.98-1.07-.85-2.59-.37-2.14.67-2.56 2.5-.43 1.8.47 4.65l3.11 9.93-5.4 1.7-3.62-11.56q-.45-1.42-1.07-2.28t-1.42-1.13-1.83.05q-1.5.48-2.14 1.51-.61 1.01-.52 2.6.1 1.56.76 3.67l2.92 9.3-5.4 1.7-6.2-19.8 4.12-1.29 1.52 2.3.3-.09q.28-1.21.98-2.13.72-.93 1.72-1.57 1-.65 2.14-1 2.18-.69 3.9-.45 1.75.23 3.03 1.46l.48-.15q.4-1.8 1.8-3 1.41-1.2 3.13-1.73m30.98-11.33q3.27-1.29 6.27.46 3.02 1.75 4.95 6.65 1.29 3.28 1.22 5.9-.07 2.6-1.3 4.4t-3.4 2.65q-1.4.55-2.54.6-1.14.03-2.07-.24-.93-.3-1.7-.73l-.27.11q.4.64.76 1.34.35.7.63 1.39l3.06 7.78-5.27 2.07-10.93-27.8 4.28-1.68 1.73 2.21.24-.1q.21-.97.7-1.92.48-.95 1.37-1.74.9-.8 2.27-1.35m-.03 4.88q-1.38.54-1.97 1.43t-.52 2.18q.09 1.28.74 3.04l.22.57q.74 1.86 1.6 3.02.86 1.15 1.96 1.5 1.1.34 2.58-.24 1.2-.47 1.72-1.45.5-.98.38-2.42-.12-1.47-.86-3.36-1.11-2.83-2.56-3.91-1.44-1.09-3.29-.36m33.66 3.7-5.16 2.33-11.92-26.3 5.15-2.33zm26.34-24.75q1.2 2.3 1.5 4.4t-.24 3.95q-.54 1.83-1.87 3.32t-3.4 2.56q-1.94 1-3.9 1.23-1.94.2-3.77-.39-1.83-.61-3.41-2.05-1.57-1.45-2.76-3.75-1.6-3.06-1.61-5.75-.02-2.7 1.42-4.84t4.22-3.59q2.58-1.34 5.15-1.27 2.58.06 4.82 1.6 2.26 1.52 3.85 4.58m-12.73 6.6q.94 1.82 1.97 2.85 1.04 1.03 2.2 1.22t2.52-.51q1.33-.7 1.83-1.75.52-1.06.26-2.5-.25-1.43-1.2-3.24-.94-1.83-1.96-2.83-1.01-1.02-2.17-1.2-1.15-.17-2.5.54-2 1.03-2.2 2.87-.17 1.83 1.25 4.56m24.56-25.39 10.57 17.85-4.87 2.88-10.57-17.84zm-6.57-5.55q1.08-.65 2.17-.6 1.07.03 1.89 1.4.8 1.36.33 2.35-.48.98-1.56 1.62-1.1.65-2.2.6-1.07-.07-1.87-1.42-.82-1.38-.34-2.33.48-.97 1.58-1.62" aria-label="des Métiers de l'Emploi" style="font-weight:700;font-size:38px;font-family:&quot;Open Sans&quot;,sans-serif;letter-spacing:10;text-anchor:middle;fill:#fff"/>
  <g fill="#fff">
    <path d="M418.04 179.75c-.37.24-.88.84-1.12 1.32-1.12 2.15-1.27 2.12 11.08 2.7 3.26.14 7.82.47 10.12.75 2.3.24 6.61.51 9.6.63 3 .1 6.47.3 7.7.48 1.24.16 5.29.4 8.97.58 3.69.15 7.31.42 8.07.6.72.15 4.77.42 9 .6 4.2.19 9.42.52 11.56.73 2.18.24 6.22.51 9.03.6 2.81.1 6.89.4 9.06.64 2.18.21 6.89.57 10.45.75 3.57.19 7.46.46 8.6.6 1.19.16 3.48.28 5.14.31 1.66 0 4.6.15 6.5.33 1.9.21 4.22.4 5.13.42 4.5.25 9.33.76 10.42 1.15.66.24 1.93.52 2.84.64s1.93.36 2.26.54c.37.18 1.12.45 1.7.57a29 29 0 0 1 5.28 1.82c.66.3 1.3.57 1.39.57.45 0 5.4 2.9 6.91 4.05 2.48 1.87 6.95 6.55 6.95 7.24 0 .16.27.6.63 1.03.85 1.09 4.2 7.25 4.2 7.7 0 .21.21.67.46 1.03.72 1.06 3.17 8.3 3.17 9.48 0 .33.2 1 .45 1.45.24.49.57 1.7.72 2.69.15 1.03.43 2.08.58 2.39.15.3.39 1.14.51 1.9.12.75.48 2.3.79 3.47.3 1.15.57 2.5.57 3.02 0 .48.27 1.78.6 2.81a13 13 0 0 1 .6 3.05c0 .63.19 1.78.43 2.54.24.75.57 2.6.76 4.04.2 1.45.48 3.05.63 3.57.12.48.33 1.66.45 2.56.1.91.46 3.2.79 5.08.87 4.98.48 5.8-2.81 5.8-1.9 0-2.2.09-3.35.96-4.11 3.26-4.9 6.2-5.32 20.03-.24 7.67-.27 7.88-1.05 9.42a5 5 0 0 1-1.64 2.02c-1.11.57-6.7.76-27.08.79l-15.7.06-1.64 1.84c-.9 1.03-2.39 2.72-3.32 3.74a107 107 0 0 0-3.35 3.9 116 116 0 0 1-4.53 5.22c-.25.28-1.4 1.63-2.54 3a23 23 0 0 1-2.27 2.47c-.12 0-.39.33-.63.72-.24.43-1.15 1.48-2 2.36a55 55 0 0 0-2.98 3.41c-1.6 1.97-6.47 7.46-6.86 7.73-.12.1-.54.58-.93 1.1-.6.8-1.57 1.92-5.65 6.58-3.41 3.9-3.41 3.86-2.54 4.2.27.08 3.56.17 7.34.17h6.89l1.48-1.69c1.48-1.69 1.84-2.08 7.24-8.12 1.66-1.81 3.42-3.78 3.9-4.38.51-.57 1.72-1.93 2.75-3.02 1-1.09 2.2-2.45 2.65-3.02.46-.57 1.85-2.14 3.09-3.47s3.95-4.35 6.04-6.74c2.1-2.38 4.13-4.47 4.56-4.62s8.12-.27 18.02-.27c16.92 0 17.3 0 19.24-.66 2.75-.91 3.99-1.79 7.07-4.9 2.75-2.78 3.11-3.4 3.8-6.52.19-.75.58-2.5.88-3.93.33-1.54.63-4.5.76-7.4.33-7.97.57-8.4 5-8.7 2.88-.17 4.18-.72 5.9-2.5 2.14-2.2 2.75-5.44 1.8-9.84a51 51 0 0 1-.62-4.38 60 60 0 0 0-.67-4.44c-.24-1.3-.57-3.35-.7-4.53a216 216 0 0 0-1.9-12.66c-.6-3.29-.6-3.56-.15-4.04.46-.46 1.48-.49 9.82-.43 7.03.03 10.08-.06 12.56-.39 3.8-.54 4.71-1.06 5.65-3.3.75-1.74.7-3.16-.24-5.37-.49-1.08-.85-1.48-2.06-2.02-1.45-.66-1.75-.7-15.34-.9-11.87-.19-13.9-.28-14.1-.67a35 35 0 0 1-1.03-3.47c-.42-1.66-.97-3.5-1.18-4.08a76 76 0 0 1-1.69-4.98c-.18-.79-.72-2-1.57-3.48-.3-.5-.72-1.48-.96-2.11a50 50 0 0 0-2.72-4.56c-.49-.72-1.48-2.2-2.18-3.3a58 58 0 0 0-6.8-8c-2.95-3.05-2.4-3.59 3.66-3.53 2.24.03 5.05.18 6.25.36 1.21.16 5.26.43 9.03.6 8.88.4 13.71 1.25 18.85 3.27 6.7 2.69 13.74 8.52 17.97 14.92l2.62 3.92c.3.46.55 1.03.55 1.24 0 .24.18.6.42.79.48.42 3.2 5.83 3.2 6.4 0 .24.27.82.6 1.33.34.48.61 1.12.61 1.36s.21.84.48 1.36c.28.48.6 1.39.76 1.96.12.57.6 2 1.03 3.17.45 1.15 1 2.72 1.2 3.47.21.76.6 1.76.85 2.27.27.48.78 1.93 1.12 3.17.36 1.24.78 2.66.96 3.17.18.48.49 1.45.67 2.12.18.66.57 1.8.81 2.56.6 1.7 1.54 4.83 2.39 8 .36 1.33.84 3.06 1.09 3.81.54 1.78.54 2.14-.07 3.38-.81 1.7-1.93 2.03-6.7 2.03h-4.17l-1.24 1.26c-.69.73-1.66 1.97-2.1 2.81l-.85 1.51-.19 12.84c-.24 15.55-.51 18.93-1.69 20.62-1.2 1.76-2.5 2.66-4.83 3.42-2 .66-2.6.7-17.4.9l-15.3.21-1.4 1.54c-2.02 2.27-6.85 8-7.36 8.76-.4.58-3.05 3.69-4.53 5.32-.25.27-.97 1.12-1.57 1.84-.64.73-2.39 2.8-3.93 4.62-1.54 1.84-3.75 4.47-4.9 5.89a164 164 0 0 1-3.31 3.99c-.7.75-2.18 2.5-3.36 3.9a119 119 0 0 1-3.56 4.1c-.82.88-1.39 1.75-1.27 1.9.12.21 2.75.33 7.7.33h7.5l.87-1.08a77 77 0 0 1 2.96-3.39c1.17-1.3 3.5-3.8 5.13-5.61l4.53-4.9c.85-.87 1.66-1.78 1.81-1.99.52-.7 5.59-6.34 7.37-8.18a97 97 0 0 0 5.17-5.65c1.39-1.72 1.84-1.78 16.52-1.81h13.31l1.63-.82c3.78-1.93 6.65-4.98 7.98-8.45.7-1.9.96-3.6 1.48-9.9.24-2.9.7-20.82.54-21.2-.24-.61.7-1.82 1.78-2.4.64-.33 2.2-.6 4.32-.72 6.83-.48 9.73-2 11-5.8 1.11-3.29.78-6.31-1.79-15.94-.18-.76-.54-2.12-.75-3.02-.4-1.54-.9-3.18-1.85-5.74-.2-.58-.57-1.66-.81-2.42-.24-.75-.6-1.84-.82-2.41-.18-.58-.48-1.48-.66-1.97a131 131 0 0 1-2.08-5.8 11 11 0 0 0-.73-1.8 4 4 0 0 1-.45-1.3c0-.25-.27-.97-.6-1.6a5 5 0 0 1-.61-1.49 8 8 0 0 0-.6-1.6 7 7 0 0 1-.6-1.66c0-.27-.22-.75-.46-1.12-.24-.36-.85-1.69-1.33-3.02a48 48 0 0 0-1.33-3.26l-.9-1.96c-.25-.57-1.1-2.39-1.85-4.02a24 24 0 0 1-1.39-3.29 8 8 0 0 0-1.02-1.87 30 30 0 0 1-1.51-2.6c-2.03-4.4-7.92-10.66-12.96-13.74-5.2-3.2-6.34-3.68-11.23-4.8-4.35-1-9.97-1.93-12.99-2.14-1.33-.1-2.9-.3-3.47-.49-.76-.24-25.43-.42-88.4-.6-58.62-.15-88.1-.33-89.63-.55a89 89 0 0 0-8.55-.33c-5.2 0-6.37.1-6.94.49"/>
    <path d="M399.52 203.15c-.72.63-1.48 1.84-1.48 2.42 0 .6 3.27 1.17 6.74 1.17 1.78 0 4.86.28 10.78.88.24.03 3.53.18 7.28.33 3.77.15 8.64.49 10.84.76 2.17.24 5.29.45 6.89.45 3.65 0 12.14.51 15.16.9 1.23.16 4.98.37 8.3.46s6.52.27 7.1.45c.57.18 2.08.33 3.32.33 3.47 0 15.07.52 19.63.88 2.23.18 7.28.42 11.17.6 5.92.22 9.37.43 14.35.88.66.06 10.45.42 20.23.78 5.77.19 6.07.19 7-.42 1.58-1 2.6-2.9 2.76-5.01.09-1.63.03-1.93-.82-3.05a12 12 0 0 0-2.14-2.09l-1.21-.84-72.72-.15c-60.82-.1-72.78-.06-73.18.27M383.7 229c-1.42 1.6-2.02 2.57-1.78 2.81.24.21 3.83.57 11.14 1.12 1 .06 5.07.24 9.06.39s8.67.4 10.42.54c1.75.18 3.6.34 4.08.34 10.39.27 19.45.66 20.99.9 1.08.18 7.4.45 14.04.64 6.64.18 13.17.45 14.5.63 1.32.15 7.1.42 12.83.57a459 459 0 0 1 17.82.76c.9.06 6.07.27 11.47.45s11.87.45 14.35.6c2.5.16 9.21.43 14.95.58 5.74.18 11.66.45 13.13.63 1.51.19 8.13.43 14.71.52l12.02.18 1.15-.82c3.6-2.47 3.17-7.46-.82-9.87l-1.78-1.09-61.7-.18c-33.91-.12-77.07-.21-95.91-.21-32.22 0-34.25.03-34.67.51m-16.58 26.85c-.3.42-.45.94-.4 1.12.16.45 8.52 1.3 16.53 1.69 3.08.18 6.46.39 7.55.51 3.23.36 3.56.4 9.66.7 3.23.18 7.85.5 10.27.75 2.41.24 6.7.51 9.51.6 2.84.1 6.28.3 7.7.49 1.42.18 5.59.45 9.27.6 3.66.15 8.76.49 11.33.73 2.54.24 7.4.51 10.78.63 3.41.1 6.8.3 7.55.48.72.16 4.68.43 8.76.58 4.07.12 10.15.45 13.47.72s9.72.64 14.2.82c4.5.18 8.8.45 9.62.6s2.6.27 3.96.27c2.15 0 2.69-.12 4.1-.87 1.4-.76 1.73-1.09 2.3-2.48.79-1.93.85-3.23.21-4.74a6.6 6.6 0 0 0-3.35-3.41c-1.24-.58-2.96-.58-76.89-.58H367.6zm-16.58 24.82c-1.3 1.42.06 2.18 4.02 2.18 1.23 0 3.56.15 5.13.33a163 163 0 0 0 11.33.88c2.98.15 6.85.42 8.6.6s5.68.45 8.76.6 7.1.43 8.9.6c1.85.19 6.26.46 9.82.61 3.57.18 7.46.45 8.61.6 1.18.19 5.44.46 9.51.61 4.08.18 7.83.45 8.37.63.51.16 1.75.3 2.72.3a305 305 0 0 1 17.6.88c1.42.15 5.83.42 9.82.6a330 330 0 0 1 12.02.76c2.6.24 6.1.45 7.76.45s5.4.15 8.3.34c6.86.45 7.68.3 9.37-1.42 1.17-1.27 1.3-1.51 1.45-3.39q.4-4.88-3.99-6.37c-.75-.24-20.32-.33-74.32-.33-70.61 0-73.33.03-73.78.54"/>
  </g>
  <path d="M-276-25.37q0 8.12-3.94 14.12T-291.44-2q-7.5 3.25-18.25 3.25-4.75 0-9.31-.62-4.5-.63-8.69-1.82-4.12-1.25-7.87-3.06v-18q6.5 2.88 13.5 5.19t13.87 2.31q4.75 0 7.63-1.25 2.94-1.25 4.25-3.44t1.31-5q0-3.43-2.31-5.87t-6.38-4.57q-4-2.12-9.06-4.56-3.19-1.5-6.94-3.62-3.75-2.19-7.12-5.31-3.38-3.13-5.56-7.57-2.13-4.5-2.13-10.75 0-8.19 3.75-14t10.69-8.87q7-3.13 16.5-3.13 7.12 0 13.56 1.69 6.5 1.63 13.56 4.75l-6.25 15.06Q-289-73.75-294-75.13q-5-1.43-10.19-1.43-3.62 0-6.19 1.19-2.56 1.12-3.87 3.25-1.31 2.06-1.31 4.8 0 3.26 1.87 5.5 1.94 2.2 5.75 4.26 3.88 2.06 9.63 4.81 7 3.31 11.94 6.94 5 3.56 7.68 8.44 2.69 4.8 2.69 12m99.5-20.44q0 10.56-2.62 19.25-2.63 8.62-8 14.87-5.32 6.25-13.5 9.63-8.2 3.31-19.38 3.31t-19.37-3.31q-8.2-3.38-13.57-9.63-5.31-6.25-7.94-14.93-2.62-8.7-2.62-19.32 0-14.19 4.63-24.68Q-254.2-81.2-244.5-87t24.63-5.81q14.87 0 24.43 5.81 9.63 5.81 14.25 16.38 4.69 10.56 4.69 24.8m-66.69 0q0 9.56 2.38 16.5 2.44 6.87 7.56 10.62Q-228.12-15-220-15q8.25 0 13.38-3.69 5.12-3.75 7.43-10.62 2.38-6.94 2.38-16.5 0-14.38-5.38-22.63t-17.69-8.25q-8.18 0-13.37 3.75-5.12 3.69-7.56 10.63-2.38 6.87-2.38 16.5m124.44-30.75q-5.56 0-9.87 2.19-4.25 2.12-7.2 6.18-2.87 4.06-4.37 9.81t-1.5 12.94q0 9.69 2.38 16.56 2.44 6.82 7.5 10.44 5.06 3.57 13.06 3.57 5.56 0 11.13-1.26 5.62-1.25 12.18-3.56v16.25q-6.06 2.5-11.94 3.57-5.87 1.12-13.18 1.12-14.13 0-23.25-5.81-9.06-5.88-13.44-16.38-4.37-10.56-4.37-24.62 0-10.38 2.8-19 2.82-8.63 8.26-14.94t13.44-9.75 18.37-3.44q6.81 0 13.63 1.75 6.87 1.69 13.12 4.69l-6.25 15.75q-5.12-2.44-10.31-4.25t-10.19-1.81M-20.06 0l-6.63-21.75H-60L-66.62 0H-87.5l32.25-91.75h23.69L.8 0Zm-11.25-38-6.63-21.25q-.62-2.12-1.69-5.44-1-3.37-2.06-6.81-1-3.5-1.62-6.06-.63 2.56-1.75 6.37-1.06 3.75-2.06 7.13l-1.44 4.81L-55.12-38ZM51 0 29-71.69h-.56l.37 7.75q.32 5.13.57 10.94t.25 10.5V0H12.3v-91.37h26.4L60.3-21.5h.38l22.94-69.87H110V0H91.94v-43.25q0-4.31.12-9.94.19-5.62.44-10.69l.38-7.68h-.57L68.75 0Zm134.63 0H133v-91.37h52.63v15.87h-33.25v20.06h30.93v15.88h-30.93V-16h33.25zm54.3 0h-19.37v-75.25h-24.81v-16.12h69v16.12h-24.81zm74.13 0H294.7v-75.25h-24.81v-16.12h69v16.12h-24.82z" aria-label="SOCAMETT" style="font-weight:700;font-size:128px;font-family:&quot;Open Sans&quot;,sans-serif;text-anchor:middle;fill:#fff" transform="matrix(1.1 0 0 1 536.5 520)"/>
</svg>
